<svg width="15" height="15" viewBox="0 0 15 15" fill="none" xmlns="http://www.w3.org/2000/svg">
<path d="M13.3334 0.333374C13.8646 0.333374 14.3334 0.802124 14.3334 1.36462V13.3334C14.3334 13.8959 13.8646 14.3334 13.3334 14.3334H1.30212C0.770874 14.3334 0.333374 13.8959 0.333374 13.3334V1.36462C0.333374 0.802124 0.770874 0.333374 1.30212 0.333374H13.3334ZM4.55212 12.3334V5.67712H2.48962V12.3334H4.55212ZM3.52087 4.73962C4.17712 4.73962 4.70837 4.20837 4.70837 3.55212C4.70837 2.89587 4.17712 2.33337 3.52087 2.33337C2.83337 2.33337 2.30212 2.89587 2.30212 3.55212C2.30212 4.20837 2.83337 4.73962 3.52087 4.73962ZM12.3334 12.3334V8.67712C12.3334 6.89587 11.9271 5.48962 9.83337 5.48962C8.83337 5.48962 8.14587 6.05212 7.86462 6.58337H7.83337V5.67712H5.86462V12.3334H7.92712V9.05212C7.92712 8.17712 8.08337 7.33337 9.17712 7.33337C10.2396 7.33337 10.2396 8.33337 10.2396 9.08337V12.3334H12.3334Z" fill="#D3D6D8"/>
</svg>
