<svg width="17" height="14" viewBox="0 0 17 14" fill="none" xmlns="http://www.w3.org/2000/svg">
<path d="M14.6771 4.08337C14.6771 4.23962 14.6771 4.36462 14.6771 4.52087C14.6771 8.86462 11.3959 13.8334 5.36462 13.8334C3.48962 13.8334 1.77087 13.3021 0.333374 12.3646C0.583374 12.3959 0.833374 12.4271 1.11462 12.4271C2.64587 12.4271 4.05212 11.8959 5.17712 11.0209C3.73962 10.9896 2.52087 10.0521 2.11462 8.73962C2.33337 8.77087 2.52087 8.80212 2.73962 8.80212C3.02087 8.80212 3.33337 8.73962 3.58337 8.67712C2.08337 8.36462 0.958374 7.05212 0.958374 5.45837V5.42712C1.39587 5.67712 1.92712 5.80212 2.45837 5.83337C1.55212 5.23962 0.989624 4.23962 0.989624 3.11462C0.989624 2.48962 1.14587 1.92712 1.42712 1.45837C3.05212 3.42712 5.48962 4.73962 8.20837 4.89587C8.14587 4.64587 8.11462 4.39587 8.11462 4.14587C8.11462 2.33337 9.58337 0.864624 11.3959 0.864624C12.3334 0.864624 13.1771 1.23962 13.8021 1.89587C14.5209 1.73962 15.2396 1.45837 15.8646 1.08337C15.6146 1.86462 15.1146 2.48962 14.4271 2.89587C15.0834 2.83337 15.7396 2.64587 16.3021 2.39587C15.8646 3.05212 15.3021 3.61462 14.6771 4.08337Z" fill="#D3D6D8"/>
</svg>
